<?xml version="1.0" encoding="utf-8"?>
<!-- Generator: Adobe Illustrator 16.0.0, SVG Export Plug-In . SVG Version: 6.00 Build 0)  -->
<!DOCTYPE svg PUBLIC "-//W3C//DTD SVG 1.1//EN" "http://www.w3.org/Graphics/SVG/1.1/DTD/svg11.dtd">
<svg version="1.1" id="Layer_1" xmlns="http://www.w3.org/2000/svg" xmlns:xlink="http://www.w3.org/1999/xlink" x="0px" y="0px"
	 width="612px" height="434.979px" viewBox="0 178.102 612 434.979" enable-background="new 0 178.102 612 434.979"
	 xml:space="preserve">
<g id="Clock" transform="translate(720.86 101.585)">
	<circle id="Clock_Frame" fill="#BCCEBC" cx="-279.029" cy="150.416" r="25.162"/>
	<circle id="Time" cx="-279.029" cy="130.477" r="1.424"/>
	<circle id="Time-2" cx="-298.968" cy="150.416" r="1.424"/>
	<circle id="Time-3" cx="-259.089" cy="150.416" r="1.424"/>
	<circle id="Time-4" cx="-279.029" cy="170.356" r="1.424"/>
	<path id="Hand" fill="#AFB9C5" d="M-279.029,133.325l0.949,16.616h-1.899L-279.029,133.325z"/>
	<path id="Hand-2" fill="#AFB9C5" d="M-270.627,158.819l-8.735-7.406l1.33-1.329L-270.627,158.819z"/>
	<circle id="Time-5" fill="#C5CFD6" cx="-279.029" cy="150.416" r="1.899"/>
</g>
<g id="Background_Shape_2" transform="translate(39.62 284.188)" opacity="0.346">
	<path id="Background_Shape" fill="#F2F2F2" d="M404.471,124.672C399.485,82.04,131.679-0.187,81.925,40.167
		s-1.899,116.076,102.261,135.494C288.347,195.078,409.455,167.257,404.471,124.672z"/>
	<path id="Background_Shape-2" fill="#DDE3E9" d="M178.11,152.35c4.605-36.176,251.95-106.059,297.858-71.782
		c45.908,34.277,34.277,106.393-61.907,122.865C317.877,219.906,173.505,188.526,178.11,152.35z"/>
</g>
<g id="Hanging_Lamp" transform="translate(35.569)">
	<g id="Light" transform="translate(0 187.208)">
		<ellipse id="Hanging_Lamp_Light" fill="#F2F2F2" cx="36.531" cy="143.66" rx="20.177" ry="10.682"/>
		<path id="Hanging_Lamp-2" fill="#DDE3E9" d="M60.031,151.019c0-13.103-10.54-23.737-23.5-23.737s-23.5,10.634-23.5,23.737"/>
	</g>
	<rect id="Wire" x="35.344" y="225.612" fill="#DDE3E9" width="2.374" height="92.339"/>
</g>
<g id="Hanging_Lamp-3" transform="translate(161.794)" opacity="0.7">
	<g id="Light-2" transform="translate(0 139.188)">
		<ellipse id="Hanging_Lamp_Light-2" fill="#F2F2F2" cx="-35.703" cy="165.702" rx="15.097" ry="8.64"/>
		<path id="Hanging_Lamp-4" fill="#DDE3E9" d="M-18.138,171.684c0-10.587-7.881-19.18-17.565-19.18
			c-9.685,0-17.566,8.593-17.566,19.18"/>
	</g>
	<rect id="Wire-2" x="-36.653" y="225.612" fill="#DDE3E9" width="2.374" height="77.004"/>
</g>
<g id="Lamp" transform="translate(716.945 244.471)">
	<path id="Body" fill="none" stroke="#CBCBCB" stroke-width="8" stroke-miterlimit="10" d="M-188.527,68.196l15.43-10.349
		c2.61-1.757,6.789-1.757,9.399,0l41.066,27.535c2.516,1.662,3.893,3.94,3.893,6.314v182.398"/>
	<path id="Lamp_Base" fill="#AFB9C5" d="M-131.557,273.574h25.162c0.808,0,1.424,0.616,1.424,1.424v0.476
		c0,0.807-0.616,1.424-1.424,1.424h-25.162c-0.807,0-1.424-0.617-1.424-1.424v-0.476
		C-132.981,274.238-132.317,273.574-131.557,273.574z"/>
	<g id="Lamp_Top" transform="translate(47.066 0) rotate(45)">
		<path id="Lamp-2" fill="#C5CFD6" d="M-119.507,206.175L-119.507,206.175c8.641,0,15.667,7.026,15.667,15.667l0,13.293l0,0
			l-31.333,0l0,0v-13.293C-135.173,213.202-128.194,206.175-119.507,206.175z"/>
		
			<ellipse id="Lamp-3" transform="matrix(-5.863905e-005 -1 1 -5.863905e-005 -354.1331 115.252)" fill="#F2F2F2" cx="-119.444" cy="234.682" rx="3.086" ry="15.667"/>
	</g>
</g>
<g id="Big_Leaf_Plant" transform="translate(23.179 484)">
	<g id="Big_Ass_Leaf" transform="translate(23)">
		<path id="leaf" fill="#DDE3E9" d="M-23.733-75.514c1.376-0.237,2.753-0.097,4.083,0.427c2.707,1.14,3.466,4.32,3.418,6.884
			c-0.047,2.801-0.617,5.792,1.472,8.071c0.95,1.044,2.184,1.804,3.133,2.849c0.997,1.14,1.804,2.373,2.421,3.798
			c1.092,2.517,1.614,5.508,0.617,8.165c-0.854,2.326-3.086,4.463-2.611,7.122c0.475,2.753,3.276,4.891,5.032,6.932
			c1.994,2.325,3.798,5.316,4.083,8.402c0.285,2.943-0.997,5.888-2.943,8.118c-3.893,4.415-9.78,6.552-15.714,6.552
			c-2.516,0-5.412-0.143-7.548-1.472c-0.617-0.38-1.092-0.902-1.424-1.52c-0.38-0.522-0.854-0.997-1.377-1.377
			c-1.187-0.901-2.089-2.137-2.611-3.514c-2.137-5.316-0.427-11.916,2.563-16.664c0.712-1.14,1.282-2.184,0.95-3.561
			c-0.38-1.377-1.234-2.658-2.042-3.847c-0.854-1.139-1.614-2.325-2.279-3.606c-0.617-1.33-0.854-2.754-0.712-4.227
			c0.285-2.754,1.377-5.363,3.086-7.549c1.614-2.136,3.513-4.178,3.561-6.979c0-2.991-1.994-5.604-1.139-8.642
			c0.333-1.328,1.092-2.469,2.184-3.274C-26.439-75.134-25.015-75.372-23.733-75.514z"/>
		<path id="middle_thing" fill="#C5CFD6" d="M-24.636-70.767c0.048-0.381,0.428-0.617,0.807-0.569c0.048,0,0.048,0,0.095,0
			c0.475,0.143,0.475,0.617,0.475,0.997c0,1.233,0.143,2.469,0.427,3.702c0.617,2.517,1.804,4.843,2.706,7.312
			c0.902,2.421,1.33,4.938,0.807,7.501c-0.522,2.422-1.282,4.795-1.804,7.217c-0.475,2.137-0.949,4.415-0.237,6.552
			c0.665,2.042,2.137,3.703,3.229,5.603c2.136,3.846,3.276,8.118,3.323,12.485c0.095,2.042-0.047,4.083-0.475,6.077
			c-0.285,1.14-0.617,2.706-1.614,3.514c-0.475,0.379-1.234,0.475-1.614-0.048c-0.38-0.523-0.047-1.282,0.047-1.853
			c0.475-2.325,0.617-4.747,0.475-7.121c-0.095-2.325-0.475-4.651-1.139-6.837c-0.712-2.041-1.709-3.939-2.896-5.695
			c-1.234-1.806-2.516-3.656-2.991-5.792c-0.522-2.186-0.095-4.415,0.475-6.601c0.57-2.277,1.377-4.51,2.184-6.692
			c0.807-2.042,1.044-4.273,0.617-6.457C-22.642-61.935-24.92-66.114-24.636-70.767z"/>
	</g>
	<g id="Big_Ass_Leaf-2" transform="translate(32 10)">
		<path id="leaf-2" fill="#DDE3E9" d="M3.158-80.102c1.709,0.475,3.276,1.376,4.558,2.609c2.563,2.754,1.756,6.885,0.38,9.923
			c-1.52,3.275-3.798,6.553-2.517,10.303c0.617,1.709,1.614,3.275,2.184,5.031c0.57,1.853,0.854,3.798,0.807,5.745
			c-0.047,3.562-0.997,7.358-3.561,9.971c-2.279,2.277-5.982,3.654-6.836,7.025c-0.902,3.562,1.282,7.501,2.231,10.824
			c1.092,3.798,1.662,8.261,0.38,12.059c-1.234,3.607-4.272,6.456-7.738,8.07c-6.931,3.229-15.002,2.706-21.934-0.38
			c-2.943-1.329-6.219-2.943-8.071-5.649c-0.522-0.76-0.807-1.661-0.854-2.563c-0.142-0.854-0.427-1.614-0.902-2.374
			c-0.902-1.709-1.329-3.607-1.234-5.507c0.285-7.453,5.792-14.338,11.821-18.373c1.424-0.949,2.706-1.946,2.991-3.703
			c0.333-1.853-0.047-3.798-0.332-5.603s-0.712-3.607-0.76-5.46c0-1.897,0.475-3.703,1.424-5.363
			c1.709-3.135,4.463-5.556,7.596-7.313c3.038-1.661,6.361-3.133,7.833-6.409c1.567-3.513,0.665-7.689,3.229-10.823
			c1.092-1.282,2.563-2.47,4.32-2.755C-0.213-81.052,1.591-80.576,3.158-80.102z"/>
		<path id="middle_thing-2" fill="#C5CFD6" d="M-0.261-74.31c0.285-0.381,0.807-0.522,1.187-0.237c0.047,0,0.047,0.047,0.095,0.047
			c0.522,0.428,0.238,0.949,0,1.425c-0.665,1.473-1.139,2.99-1.424,4.604c-0.57,3.322-0.475,6.693-0.665,10.063
			c-0.19,3.371-0.949,6.552-2.943,9.354c-1.852,2.61-4.035,4.984-5.887,7.597c-1.662,2.278-3.418,4.7-3.703,7.596
			c-0.285,2.802,0.57,5.556,0.854,8.31c0.57,5.695-0.522,11.251-2.659,16.521c-0.949,2.47-2.184,4.795-3.75,6.979
			c-0.902,1.233-2.184,2.849-3.75,3.274c-0.712,0.19-1.709-0.048-1.852-0.901c-0.142-0.808,0.617-1.566,1.044-2.137
			c1.757-2.517,3.229-5.27,4.273-8.214c1.139-2.753,1.899-5.695,2.279-8.64c0.237-2.754,0.095-5.508-0.427-8.261
			c-0.475-2.802-0.997-5.649-0.475-8.451c0.57-2.848,2.184-5.316,3.988-7.548c1.899-2.374,3.94-4.605,6.029-6.789
			c2.042-1.994,3.465-4.559,4.13-7.313C-2.587-62.821-3.061-68.945-0.261-74.31z"/>
	</g>
	<g id="Big_Ass_Leaf-3" transform="translate(0 56)">
		<path id="leaf-3" fill="#C5CFD6" d="M-16.875-105.023c2.801,0,5.27,1.474,6.931,3.608c1.994,2.469,2.374,5.46,3.181,8.403
			c0.332,1.52,1.139,2.849,2.279,3.893c1.092,0.902,2.516,1.092,3.798,1.521c2.659,0.901,4.7,2.942,5.602,5.602
			c1.044,3.182-0.047,6.362,0.143,9.543c0.19,2.943,3.086,4.795,5.412,6.172c2.326,1.424,4.415,2.706,5.127,5.412
			c0.712,2.896,0.997,6.076-0.047,8.925c-1.709,4.748-6.646,6.789-11.441,7.122c-4.368,0.284-9.827-0.189-13.103-3.324
			c-1.946-1.897-2.659-4.51-2.563-7.168c0.095-1.613,0.332-3.229,0.807-4.795c0.379-1.092,0.617-2.23,0.807-3.371
			c0.285-3.086-2.563-3.654-4.985-4.51c-2.943-1.045-5.364-3.182-6.741-5.981c-1.377-2.611-1.994-5.603-1.14-8.498
			c0.427-1.473,1.187-2.85,2.231-3.987c0.475-0.522,1.092-0.902,1.519-1.472c0.333-0.522,0.38-1.141,0.19-1.709
			c-0.617-2.659-2.563-4.892-3.228-7.55c-0.617-2.422-0.237-5.411,1.946-6.932C-19.154-104.69-18.014-105.023-16.875-105.023z"/>
		<path id="middle_thing-3" fill="#AFB9C5" d="M-13.029-98.092c2.943,3.181,3.75,7.454,3.988,11.584
			c0.142,2.374,0,4.843,0.665,7.074c0.57,1.945,1.946,3.418,3.371,4.795c2.849,2.801,6.029,5.648,6.836,9.731
			c0.475,2.373,0.143,4.842,0.854,7.216c0.665,2.185,1.662,4.227,2.991,6.077c1.044,1.473,2.421,2.563,3.608,3.94
			c0.333,0.427,0.854,1.044,0.712,1.614c-0.189,0.663-1.044,0.9-1.662,0.807c-1.424-0.237-2.658-1.614-3.608-2.658
			c-1.377-1.425-2.563-3.086-3.513-4.843c-1.092-1.899-1.852-3.988-2.279-6.22c-0.38-2.278-0.19-4.699-1.044-6.885
			c-1.472-3.702-4.985-5.887-7.548-8.781c-3.181-3.608-2.706-8.071-2.374-12.486c0.19-2.421,0.38-5.175-0.854-7.406
			c-0.475-0.854-1.519-1.614-1.709-2.61C-14.786-97.949-13.789-98.852-13.029-98.092z"/>
	</g>
	<path id="Base" fill="#89C5CC" d="M-9.896,9.846c0,18.088,2.943,27.536,18.515,27.536c15.572,0,18.515-9.448,18.515-27.536H-9.896z
		"/>
</g>
<g id="Table" transform="translate(194.488 465)">
	<g id="Lamp-4" transform="translate(23)">
		<path id="Lamp_Base-2" fill="#AFB9C5" d="M-114.331,2.734h16.142c0.522,0,0.95,0.428,0.95,0.949v2.373
			c0,0.522-0.427,0.95-0.95,0.95h-16.142c-0.522,0-0.949-0.428-0.949-0.95V3.685C-115.28,3.162-114.853,2.734-114.331,2.734z"/>
		<path id="Lamp_Body" fill="#DDE3E9" d="M-114.093-11.033h15.667c4.083,0,7.359,3.276,7.359,7.358c0,4.083-3.276,7.358-7.359,7.358
			h-15.667c-4.083,0-7.359-3.275-7.359-7.358C-121.452-7.757-118.129-11.033-114.093-11.033z"/>
		<path id="Shade" fill="#C5CFD6" d="M-123.066-64.822c0,0,8.166-0.807,16.332-0.807s16.332,0.807,16.332,0.807l2.184,37.742
			c0,0-9.257,0.902-18.515,0.902c-9.258,0-18.515-0.902-18.515-0.902L-123.066-64.822z"/>
	</g>
	<path id="Table-2" fill="#F2F2F2" d="M-63.795,56.382v-38.93H-103.2v38.93h-9.97V7.008h59.344v49.374H-63.795z"/>
</g>
<g id="Plant" transform="translate(768.362 440)">
	<g id="Succulents" transform="translate(13 0)">
		<path id="Thi_Succs_" fill="#C1DEE2" d="M-248.901-52.403c4.178,9.969,11.3,16.901,15.098,27.25
			c2.231,6.124,3.182,12.818,3.229,19.654c0.047,3.703-0.048,7.454-0.048,11.157c0,3.606-0.096,7.216-0.428,10.824
			c-0.332,3.606-0.664,7.216-0.808,10.823c-0.143,2.85-0.188,6.124-1.14,8.735c-0.76,2.041-2.706,2.374-3.229-0.143
			c-0.236-1.425-0.284-2.896-0.236-4.367c0.048-1.853,0.143-3.656,0.189-5.508c0.237-7.358-0.048-14.671,0.095-22.028
			c0.144-7.169,1.045-14.337,0.049-21.459c-0.854-5.887-2.991-10.966-5.461-15.81c-2.373-4.651-4.938-9.21-6.552-14.526
			c-0.475-1.567-0.807-3.133-0.997-4.748C-248.996-52.498-248.948-52.498-248.901-52.403z"/>
		<path id="Thi_Succs_2" fill="#89C5CC" d="M-250.04-32.748c0.807,0.617,1.281,1.472,1.852,2.326c0.712,1.092,1.52,2.041,2.23,3.133
			c1.473,2.231,2.754,4.605,4.036,6.979c2.563,4.415,4.415,9.257,5.363,14.29c0.997,5.315,1.234,10.823,1.662,16.188
			c0.427,5.697,0.854,11.489,0.949,17.233c0.048,2.563,0.143,5.316-0.144,7.833c-0.188,1.566-0.901,2.943-2.516,2.943
			c-3.419-0.048-5.033-3.846-5.745-6.932c-0.997-4.605-1.187-9.495-1.044-14.195c0.189-5.648,1.188-11.252,1.614-16.9
			c0.427-5.981,0.188-11.868-1.853-17.472c-1.045-2.849-2.23-5.602-3.322-8.45c-0.38-1.233-0.902-2.421-1.473-3.561
			c-0.713-1.234-1.566-2.374-2.089-3.703L-250.04-32.748z"/>
		<path id="Thi_Succs_3" fill="#C1DEE2" d="M-210.446-44.664l0.332-0.237c-0.332,1.187-0.759,2.326-1.281,3.465
			c-0.332,1.092-0.617,2.23-0.808,3.37c-0.617,2.706-1.281,5.317-1.853,8.07c-1.092,5.365-0.9,11.204-0.188,17.139
			c0.712,5.649,1.804,11.253,2.278,16.901c0.476,4.652,0.569,9.305,0.189,13.957c-0.285,3.039-1.187,6.646-3.703,6.362
			c-1.187-0.144-1.804-1.567-2.041-3.134c-0.38-2.563-0.476-5.271-0.617-7.786c-0.333-5.696-0.428-11.347-0.476-16.996
			c-0.047-5.316-0.237-10.729,0.096-15.903c0.332-4.653,1.329-9.258,2.943-13.673c0.807-2.186,1.565-4.415,2.469-6.504
			c0.427-0.997,0.949-1.899,1.377-2.896C-211.302-43.335-211.015-44.143-210.446-44.664z"/>
		<path id="Thi_Succs_4" fill="#C1DEE2" d="M-248.996-16.274c0.475-0.76,1.472,1.758,1.614,2.09
			c-0.048-0.144-0.144-0.332-0.189-0.476c0.949,1.473,1.709,3.086,2.23,4.795s0.949,3.418,1.425,5.175
			c0.901,3.229,2.041,6.361,2.849,9.591c0.76,3.133,1.044,6.36,0.807,9.542c-0.236,3.419-0.283,6.837-0.095,10.255
			c0.095,1.613,0.617,3.134,0.997,4.7c0.38,1.565,0.665,3.133,1.092,4.699c0.096-0.189,0.096,0.476,0.096,0.521
			c0,0.38-0.048,0.713-0.189,1.093c-0.237,0.949-0.902,1.661-1.804,1.993c-1.662,0.476-3.183-1.044-3.703-2.61
			c-0.713-2.327-1.234-4.7-1.521-7.122c-0.332-2.184-0.428-4.366-0.332-6.599c0.189-4.367,0.996-8.641,1.188-13.008
			c0.237-4.748-0.712-9.211-1.472-13.815c-0.332-2.23-0.808-4.415-1.473-6.552c-0.285-0.807-0.665-1.614-1.092-2.421
			C-248.805-14.945-249.28-15.752-248.996-16.274z"/>
		<path id="Thi_Succs_5" fill="#69A1AC" d="M-235.655-23.681c-0.19,5.412-0.522,10.823-1.234,16.188
			c-0.76,5.508-1.565,10.967-2.278,16.427c-0.712,5.364-1.425,10.777-1.329,16.189c0.048,3.987-0.569,10.729,3.846,12.723
			c4.51,1.994,5.46-6.504,5.744-9.353c0.57-5.412,0.38-10.871,0.096-16.284c-0.285-5.554-0.76-11.108-1.33-16.663
			c-0.664-6.172-1.139-12.344-1.565-18.516c-0.189-3.038-0.237-6.124-0.189-9.162c0.047-2.896-0.048-5.792-1.093-8.546l-0.142,0.095
			"/>
		<path id="Thi_Succs_6" fill="#89C5CC" d="M-212.487-6.447c-0.808,1.188-1.614,2.326-2.374,3.608
			c-1.377,2.23-2.611,4.7-2.991,7.881c-0.76,6.693-0.143,13.862,0,20.746c0.048,1.425-0.143,2.754,0.428,4.083
			c0.522,1.234,1.425,2.137,2.326,2.137c1.898,0,1.614-4.7,1.614-6.789c0-3.607-0.38-7.264-0.38-10.872
			c0-3.561,0.285-7.072,0.76-10.587c0.476-3.322,1.281-6.646,2.326-9.827c0.143-0.428,1.139-3.751,0.189-3.181"/>
		<path id="Thi_Succs_7" fill="#69A1AC" d="M-220.938-42.054c-1.281,0-1.233,6.267-1.281,7.073c-0.143,2.896-0.096,5.84-0.189,8.735
			c-0.189,6.361-0.427,12.771-1.377,19.037c-0.521,3.371-1.092,6.741-1.756,10.112c-0.665,3.371-1.521,6.74-1.946,10.111
			c-0.428,3.275-0.19,6.6-0.144,9.922c0,3.323,0.189,6.601,0.569,9.924c0.095,0.807,0.237,1.613,0.38,2.421
			c0.049,0.712,0.096,1.424,0.237,2.137c0.285,1.044,1.614,1.377,2.469,1.188c2.374-0.428,3.894-3.418,4.7-5.603
			c1.044-2.754,1.566-5.792,2.137-8.735c0.616-3.323,0.996-6.693,1.14-10.064c0.332-6.836-0.096-13.72-0.569-20.557
			c-0.285-3.799-0.57-7.597-1.092-11.348c-0.476-3.75-1.092-7.501-1.521-11.299c-0.284-2.753-0.568-5.507-0.76-8.261
			C-219.941-37.828-219.988-42.054-220.938-42.054"/>
		<path id="Thi_Succs_8" fill="#89C5CC" d="M-222.505,3.57c-0.189-6.601-2.85-35.561-3.467-43.535
			c-0.143-1.994-1.613-10.302-1.804-12.581c-0.521,0.617-0.475,10.586-0.475,12.866c0,2.277-0.285,4.463-0.429,6.74
			c-0.143,2.279-3.561,31.951-3.986,34.136c-0.854,4.366-1.473,8.878-1.899,13.388c-0.428,4.368-1.14,8.973-0.521,13.388
			c0.143,0.997,0.38,1.994,0.712,2.944c0.38,0.996,0.617,1.946,0.949,2.99c0.476,1.709,1.378,3.181,2.706,3.894
			c2.753,1.424,4.272-1.805,5.032-4.652c1.188-4.511,1.994-9.162,2.326-13.814C-222.932,14.109-222.362,8.887-222.505,3.57"/>
	</g>
	<g id="Planter" transform="translate(0 159)">
		<path id="Vase" fill="#FFFFFF" d="M-237.99-136.013h41.304c0.522,0,0.949,0.427,0.949,0.948v41.305
			c0,0.521-0.427,0.949-0.949,0.949h-41.304c-0.521,0-0.949-0.429-0.949-0.949v-41.305
			C-238.939-135.586-238.513-136.013-237.99-136.013z"/>
		<path id="Leg" fill="#C5CFD6" d="M-242.737-131.266h2.849c0.522,0,0.949,0.428,0.949,0.949v51.747c0,0.522-0.427,0.95-0.949,0.95
			h-2.849c-0.521,0-0.949-0.428-0.949-0.95v-51.747C-243.686-130.838-243.261-131.266-242.737-131.266z"/>
		<path id="Leg-2" fill="#C5CFD6" d="M-219-131.266h2.849c0.522,0,0.949,0.428,0.949,0.949v51.747c0,0.522-0.427,0.95-0.949,0.95
			H-219c-0.522,0-0.949-0.428-0.949-0.95v-51.747C-219.949-130.838-219.522-131.266-219-131.266z"/>
		<path id="Leg-3" fill="#C5CFD6" d="M-194.788-131.266h2.849c0.522,0,0.95,0.428,0.95,0.949v51.747c0,0.522-0.428,0.95-0.95,0.95
			h-2.849c-0.521,0-0.949-0.428-0.949-0.95v-51.747C-195.737-130.838-195.309-131.266-194.788-131.266z"/>
	</g>
</g>
<g>
	<g id="Head-5" transform="translate(60.75 -34.875)">
		<path id="Head-6" fill="#B28B67" d="M331.132,434.022l-3.702-17.14c2.041-2.421,3.465-5.365,3.229-8.688
			c-0.664-9.542-13.957-7.454-16.521-2.611c-2.563,4.795-2.278,16.996,1.044,17.898c1.329,0.332,4.179-0.475,7.026-2.231
			l-1.804,12.818h10.729V434.022L331.132,434.022z"/>
	</g>
	<path id="Hair" fill="#191847" d="M382.932,385.793c0.712-2.184,0.996-8.403,1.044-10.255c0.096,0,0.19,0,0.332,0
		c1.473,0,2.659,1.187,2.659,2.659c0,0.712-0.285,1.424-0.808,1.899c0.617,0.854,1.33,1.804,2.089,2.706
		c2.991-1.804,5.223-7.026,2.279-12.059c-0.809-2.469-2.611-3.798-4.795-4.415c-1.614-0.712-3.418-0.807-5.08-0.38
		c-2.991,0.237-5.697,1.187-6.456,1.709c0,2.849,0.568,3.703,5.27,3.608c1.141,0.617,2.041,1.662,2.99,3.038
		c0,0.095-0.617,8.546-3.229,8.546c-2.61,0-4.891-1.662-6.028-1.662c-0.854,0-0.665,1.044-0.097,1.852
		c0.477,0.665,2.706,1.282,2.706,2.279c0,0.569-0.568,0.569-1.044,0.569c-0.38,0-0.712,0-0.712,0.237
		c0,0.997-0.333,2.849,1.377,2.849C377.141,388.974,382.079,388.357,382.932,385.793z"/>
	<path id="Leg-4" fill="#997659" d="M401.259,437.636L384.5,492.469l-8.118,46.621h-6.362l8.547-101.454H401.259L401.259,437.636z"
		/>
	<path id="Leg-5" fill="#B28B67" d="M407.24,437.636c-1.141,30.1,0.189,45.623,0.475,48.377c0.237,2.754,3.751,20.462,12.012,54.026
		l-6.789-2.326c-13.056-30.764-17.471-46.763-18.989-50.798c-1.473-4.036-5.459-20.462-11.916-49.279H407.24L407.24,437.636z"/>
	<path id="shoe-3" fill="#E4E4E4" d="M418.397,537.048c0.475-0.142,0.948,0.096,1.092,0.57v0.047l0.854,2.991
		c-0.048,1.187-0.189,2.374-0.38,3.514h-24.829c0,0-0.95-3.229,1.14-3.514c2.089-0.285,3.466-0.476,3.466-0.476l11.536-5.223
		c0.236-0.095,0.476,0,0.569,0.237l0,0l0.761,1.805c0,0,1.945,0.901,3.133,0.901L418.397,537.048z"/>
	<path id="shoe-4" fill="#E4E4E4" d="M376.571,537.048c0.475-0.142,0.95,0.096,1.092,0.57v0.047l0.854,2.991
		c-0.047,1.187-0.188,2.374-0.379,3.514h-24.83c0,0-0.948-3.229,1.141-3.514s3.466-0.476,3.466-0.476l11.536-5.223
		c0.237-0.095,0.475,0,0.569,0.237l0,0l0.76,1.805c0,0,1.947,0.901,3.134,0.901L376.571,537.048z"/>
	<path id="Bottom-3" fill="#69A1AC" d="M403.49,437.636l-7.121,27.915h-21.744l3.229-27.915H403.49z"/>
	<path id="Bottom-4" fill="#89C5CC" d="M407.476,437.636c3.515,10.539,1.329,27.915,1.329,27.915h-22.17l-6.125-27.915H407.476z"/>
	<path id="Skin-3" fill="#B28B67" d="M437.007,463.984c0.428-0.381,0.809-1.566-0.617-2.279c-3.561-1.756-8.781-4.984-9.59-6.172
		c-1.661-2.421-9.637-27.345-9.637-27.345l-9.211,1.328c0,0,12.392,26.302,13.341,27.915c1.377,2.374-0.237,6.553-0.854,8.735
		c1.565,0.428,2.089-0.475,2.754-1.424c0.664-0.997,1.424-1.994,3.513-1.377c2.658,0.807,4.985,2.374,7.454,2.041
		C435.203,465.219,436.2,464.744,437.007,463.984z M354.684,450.313l11.916-9.495l-5.175-6.6l-10.775,13.91
		c-3.418,2.041-6.172,4.178-8.213,6.361c-0.429,0.712-0.855,1.994,1.565,1.092c2.373-0.902,4.938-1.709,5.507-0.997
		c0.569,0.712-0.617,2.137,0.38,3.086c0.096,0.095,0.189,0.095,0.285,0.095C350.934,457.765,352.454,455.249,354.684,450.313z"/>
	<path id="Coat_Back" fill="#EFA02E" d="M385.544,393.247l-3.893-0.095c-4.272,17.281-13.625,33.803-28.152,49.469l14.479,13.246
		C381.651,434.502,389.01,413.424,385.544,393.247z"/>
	<path id="Shirt" fill="#DDE3E9" d="M408.902,438.775l-33.992,4.747c0,0,7.786-30.338,4.983-50.323l10.019-2.944
		C399.787,402.029,404.297,417.648,408.902,438.775z"/>
	<path id="Coat_Front" fill="#EFA02E" d="M426.373,451.118c-9.59-41.303-36.224-60.91-36.224-60.91l0,0l0,0l-0.665,0.095
		c-1.188,0.19-3.655,0.665-3.655,0.665l-1.472,7.406c1.424,12.96,2.705,52.697,2.705,52.697l22.22-3.134
		c0.236,1.805,0.38,3.607,0.521,5.507L426.373,451.118z"/>
	<path id="Shade-3" opacity="0.2" enable-background="new    " d="M403.157,449.029l6.172-0.854
		c-0.854-7.311-2.469-14.526-4.747-21.554c0.284,4.131,0.38,8.261,0.237,12.392C404.629,443.475,404.058,446.846,403.157,449.029
		L403.157,449.029z"/>
	<path id="Light-3" opacity="0.2" fill="#FFFFFF" enable-background="new    " d="M402.493,435.167l-11.679-3.561l0.712,5.079
		L402.493,435.167z"/>
</g>
<g display="none">
	<g id="Head-3" transform="translate(3.624 -24.592)" display="inline">
		<path id="Head-4" fill="#B28B67" d="M251.565,441.438l-4.13-14.813c1.14-2.469,1.519-5.224,1.092-7.881
			c-1.424-8.355-9.495-5.459-10.587-1.044c-1.092,4.417,0.427,15.144,2.611,15.62c0.854,0.189,2.563-0.76,4.178-2.517l0.237,11.395
			L251.565,441.438z"/>
	</g>
	<path id="hair-2" display="inline" fill="#191847" d="M244.259,383.847c0.854-0.238,3.229-0.665,3.656-0.712
		c0.285-0.047,0.569,0,0.712-0.285c0.095-0.237,0-0.57,0.047-0.807c0-0.285,0.047-0.57,0.095-0.854
		c0.095-0.807,0.285-1.614,0.617-2.374c0.569-1.424,1.614-2.611,2.943-3.371c1.519-0.807,3.181-1.282,4.89-1.282
		c1.804-0.095,3.513,0.332,5.27,0.665c1.662,0.333,3.418,0.333,5.032-0.143c1.662-0.475,2.849-1.566,4.178-2.611
		c1.33-1.14,2.991-1.804,4.7-1.947c1.614-0.047,3.228,0.38,4.652,1.14c1.377,0.617,2.516,1.614,3.276,2.896
		c0.807,1.424,1.044,3.133,0.143,4.605c-1.234,2.136-3.988,2.991-6.267,3.229c-1.329,0.142-2.706,0.047-3.988-0.238
		c-1.756-0.379-3.323-1.187-4.985-1.851c-0.759-0.285-1.566-0.522-2.421-0.617c-0.807-0.143-1.567-0.143-2.231,0.427
		c-0.617,0.617-1.33,1.139-2.089,1.566c-0.76,0.427-1.614,0.665-2.516,0.76c-1.709,0.19-3.418-0.143-5.127-0.285
		c-1.377-0.142-2.849-0.237-4.178,0.19c-0.57,0.19-1.377,0.522-1.472,1.14c3.561,0.19,5.412,4.32,4.842,7.596
		c-0.333,1.757-3.228,4.13-4.605,3.418c-0.854-0.475-0.475-1.282-0.237-1.804c0.475-0.997,0.522-2.231-0.665-2.753
		c-0.997-0.427-1.852,0.997-1.852,0.997c-0.238,0-2.659-0.997-4.416-2.611c-1.519,0.285-1.852-0.712-1.614-1.566
		C240.888,385.508,243.072,384.226,244.259,383.847z"/>
	<path id="Leg-3_1_" display="inline" fill="#B28B67" d="M272.174,456.91c-0.759,9.306-49.849,36.65-50.133,37.41
		c-0.19,0.521,15.287,32.331,15.287,32.331l-4.273,1.472c0,0-23.737-33.707-22.503-37.268c1.756-5.129,38.075-33.851,38.075-33.851
		L272.174,456.91z"/>
	<path id="Pant-3" display="inline" fill="#2F3676" d="M236.235,521.857l-7.026,2.277c-14.765-14.858-20.557-27.154-19.512-33.422
		c1.045-6.267,37.933-33.803,37.933-33.803h25.067c-0.854,21.507-46.335,37.458-46.953,38.407
		C225.126,496.268,231.156,505.24,236.235,521.857z"/>
	<path id="shoe-3_1_" display="inline" fill="#E4E4E4" d="M237.612,525.797c0.38-0.285,0.902-0.189,1.234,0.144l1.709,2.136
		c0.333,0.95,0.57,1.945,0.76,2.896l-22.408,7.265c0,0-1.947-2.279-0.143-3.135c1.804-0.807,2.991-1.377,2.991-1.377l8.735-7.548
		c0.19-0.143,0.427-0.143,0.617,0l1.282,1.234c0,0,2.042,0.142,3.133-0.19L237.612,525.797z"/>
	<path id="Leg-4_1_" display="inline" fill="#997659" d="M266.572,456.91l21.886,46.857l21.506,39.643h-5.08l-55.498-86.5H266.572
		L266.572,456.91z"/>
	<path id="shoe-4_1_" display="inline" fill="#E4E4E4" d="M309.252,541.084c0.38-0.143,0.808,0.095,0.949,0.475v0.047l0.713,2.518
		c-0.048,0.997-0.143,1.994-0.333,2.991h-20.983c0,0-0.807-2.754,0.949-2.944c1.757-0.237,2.943-0.379,2.943-0.379l9.78-4.416
		c0.19-0.095,0.427,0,0.475,0.19l0,0l0.617,1.52c0,0,1.614,0.759,2.658,0.759L309.252,541.084z"/>
	<path id="Pant-4" display="inline" fill="#5C63AB" d="M307.971,535.196l-11.252,1.898c-8.688-11.44-45.149-58.347-49.184-80.186
		h25.067C285.989,472.672,299.662,523.565,307.971,535.196z"/>
	<path id="Skin-2" display="inline" fill="#B28B67" d="M301.181,479.081c0.475-1.044,0.997-2.089,3.039-1.804
		c3.608,0.427,6.883,2.325,9.827-1.093c0.38-0.428,0.522-1.613-0.949-2.042c-3.607-1.044-9.021-3.228-9.97-4.178
		c-1.282-1.329-5.792-9.305-13.53-23.88l-8.403,2.754c10.634,15.002,16.284,22.931,17.043,23.832
		c1.662,1.994,0.854,6.125,0.617,8.261c0.19,0,0.427,0,0.617,0C300.516,480.743,300.849,479.936,301.181,479.081z M227.927,451.735
		l-15.999-4.795c-2.563-2.09-5.412-3.799-8.451-5.079c-0.759-0.144-2.041-0.049-0.475,1.756c1.614,1.805,3.181,3.751,2.753,4.511
		c-0.475,0.759-2.136,0.189-2.611,1.376c-0.333,0.808,2.421,1.377,8.261,1.71l12.438,7.312L227.927,451.735z"/>
	<path id="Coat_Back_1_" display="inline" fill="#DB2721" d="M253.706,417.886l-3.703-0.188
		c-6.979,8.593-7.928,27.346-12.914,30.432c-4.7,2.896-12.011,1.566-20.794-0.428l-1.852,6.029
		c8.641,7.264,25.684,12.248,31.809,7.453C256.033,453.587,255.653,430.656,253.706,417.886z"/>
	<path id="Shirt_1_" display="inline" fill="#DDE3E9" d="M275.118,461.373l-32.093,3.939c-1.472,0.189-1.472-1.945-1.377-3.037
		c0.95-12.581,8.878-27.015,6.694-44.532l9.067-2.563C266.62,426.526,271.082,441.291,275.118,461.373z"/>
	<path id="Coat_Front_1_" display="inline" fill="#FF4133" d="M302.938,469.776c-7.644-26.254-22.598-44.484-44.912-54.691
		l-3.655,0.427c0,0-7.264,43.867,0.047,57.304l28.865-3.562c-1.282-6.836-3.656-13.91-6.552-20.746
		c7.976,10.966,14.527,18.752,19.607,23.404L302.938,469.776z"/>
</g>
<g>
	<g id="Head" transform="translate(48.06 27.507)">
		<path id="Head-2" fill="#B28B67" d="M145.097,405.194l1.187-16.568c-2.231-1.994-3.94-4.558-4.178-7.69
			c-0.617-9.021,12.106-8.782,15.192-4.652c3.038,4.178,4.368,15.619,1.376,16.901c-1.187,0.475-3.988,0.095-6.931-1.188
			l3.371,11.773L145.097,405.194z"/>
	</g>
	<path id="hair" fill="#191847" d="M200.724,399.466c-1.424-0.189-2.849-0.143-4.272,0.144c0.332-1.234,0.332-2.518,0-3.703
		c-0.38-1.14-0.95-2.184-1.662-3.134c-0.285-0.475-0.617-0.902-1.092-1.234c-0.427-0.332-0.997-0.522-1.519-0.569
		c-0.57-0.048-1.092,0.047-1.614,0.237c-0.237,0.095-0.427,0.237-0.665,0.332c-0.237,0.095-0.38-0.047-0.57-0.142
		c-0.522-0.285-1.092-0.427-1.662-0.38c-0.617,0-1.187,0.19-1.756,0.475c-0.522,0.285-0.997,0.665-1.33,1.14
		c-0.142,0.237-0.285,0.475-0.332,0.759c-0.047,0.095-0.047,0.19-0.143,0.238c-0.095,0.047-0.19,0.047-0.285,0.095
		c-0.902,0.475-1.614,1.282-1.899,2.279c-0.19,0.854-0.19,1.757,0,2.658c0.19,1.093,1.566,3.751,2.611,4.652
		c0.997,0.76,2.184,1.234,3.418,1.329c-0.617,0.997-1.044,2.138-1.234,3.323c-0.237,1.281-0.333,2.563-0.237,3.846
		c0.047,1.234,0.285,2.47,0.712,3.655c0.38,1.044,1.139,1.898,2.184,2.374c0.475,0.189,0.949,0.332,1.472,0.476
		c0.475,0.143,0.997,0.188,1.472,0.236c0.949,0.047,1.994-0.143,2.611-0.949c0.237-0.333,0.427-0.665,0.617-1.045
		c0.047-0.143,0.095-0.188,0-0.332c-0.142-0.096-0.285-0.189-0.427-0.284c-0.807-0.476-1.376-1.282-1.614-2.185
		c-0.237-0.949-0.142-2.279,0.712-2.801c1.092-0.713,2.469-0.285,3.608,0.142c0.143-1.613,0.997-3.086,2.279-4.082
		c1.472-0.997,3.276-1.377,4.795-2.278c0.427-0.237,0.76-0.522,1.044-0.902c0.143-0.188,0.238-0.38,0.238-0.617
		c0-0.236-0.143-0.475-0.333-0.664C205.092,401.507,202.148,399.703,200.724,399.466z"/>
	<path id="Leg_1_" fill="#997659" d="M194.695,465.883l30.242,52.317l22.693,44.247h4.89l-37.98-96.564H194.695L194.695,465.883z"/>
	<path id="shoe" fill="#E4E4E4" d="M245.778,559.789c-0.427-0.143-0.902,0.095-1.044,0.521v0.049l-0.759,2.754
		c0.047,1.092,0.19,2.184,0.379,3.274h22.931c0,0,0.902-2.99-1.044-3.229c-1.947-0.237-3.181-0.427-3.181-0.427l-10.682-4.796
		c-0.19-0.096-0.427,0-0.522,0.189l0,0l-0.665,1.662c0,0-1.804,0.854-2.896,0.854L245.778,559.789z"/>
	<path id="Pant" fill="#DB2721" d="M241.315,555.373l9.4-2.943c0,0-6.172-19.132-15.192-42.156
		c-9.021-23.025-19.275-44.391-19.275-44.391h-26.586c0,0,11.441,27.063,24.307,49.186
		C222.23,529.072,231.346,542.508,241.315,555.373z"/>
	<path id="Leg-2_1_" fill="#B28B67" d="M192.748,465.883c-2.849,18.373-8.355,41.873-8.878,42.633
		c-0.333,0.476-12.818,4.795-37.41,12.961l1.044,4.464c29.339-4.368,44.769-7.786,46.335-10.207
		c2.374-3.608,14.195-32.236,18.752-49.851H192.748L192.748,465.883z"/>
	<path id="Pant-2" fill="#FF4133" d="M155.1,517.583l1.852,7.169c21.934,1.994,35.369,0.57,40.307-4.32
		c4.937-4.89,10.587-23.071,16.901-54.596h-25.352c-3.988,25.826-6.267,39.262-6.742,40.354
		C181.592,507.329,172.619,511.079,155.1,517.583z"/>
	<path id="shoe-2" fill="#E4E4E4" d="M148.407,520.669c0.095-0.475-0.237-0.901-0.712-0.949c0,0,0,0-0.048,0l-2.848-0.284
		c-1.044,0.236-2.089,0.569-3.086,0.949l3.988,23.405c0,0,3.086,0.38,2.943-1.614c-0.142-1.994-0.142-3.322-0.142-3.322
		l2.848-11.728c0.048-0.237-0.095-0.475-0.285-0.521l0,0l-1.757-0.38c0,0-1.139-1.661-1.329-2.802L148.407,520.669z"/>
	<path id="Skin" fill="#997659" d="M236.615,442.24l5.887-4.367c0,0,0.617-5.271,2.468-5.555c0.428-0.285,0.38,0.712,0.475,1.709
		c0.047,0.948,0.237,1.945,1.139,1.613c1.757-0.616,5.697-4.51,6.552-3.987c1.282,0.808,0.665,3.987-0.285,5.648
		c-1.804,3.134-3.513,4.32-7.881,6.221c-3.418,1.472-7.121,5.031-7.121,5.031L236.615,442.24z M212.973,438.728l13.388-9.97
		c1.709-2.801,3.798-5.412,6.171-7.644c0.665-0.38,1.899-0.761,0.997,1.472c-0.854,2.231-1.709,4.652-0.997,5.175
		c0.285,0.237,0.712,0.19,1.187,0.095c0.57-0.095,1.234-0.188,1.709,0.334c0.57,0.616-1.804,2.136-7.121,4.414l-9.163,11.108
		L212.973,438.728z"/>
	<path id="Sleeve" fill="#2026A2" d="M205.661,437.968c6.742-0.997,13.103-3.893,18.278-8.402l3.703,5.935
		c-4.273,5.649-10.729,10.682-16.854,11.395C205.899,447.415,202.623,441.908,205.661,437.968z"/>
	<path id="Clothes" fill="#1F28CF" d="M198.778,483.164c-5.175,0.048-10.017,0.048-12.723,0.997c-6.884-14.67,1.376-22.171,0-31.998
		c-1.52-10.729,4.795-28.485,6.077-28.675l11.584-1.614c1.804,8.118,6.267,16.711,10.16,25.257
		c8.688,0.712,26.443-8.546,26.443-8.546s6.077,9.115,6.314,13.293c-10.064,7.217-19.085,11.063-26.728,12.296
		c0.902,4.511,0.949,8.926-0.38,13.15c-0.997,3.182-4.7,4.604-9.448,5.271C206.659,483.069,202.623,483.116,198.778,483.164z"/>
	<path id="Fill_35" fill="#C5CFD6" d="M252.519,422.586L252.519,422.586L252.519,422.586"/>
	<path id="Fill_37" fill="#C5CFD6" d="M252.519,422.586L252.519,422.586L252.519,422.586"/>
	<path id="Fill_39" fill="#C5CFD6" d="M252.567,422.538C252.567,422.538,252.519,422.538,252.567,422.538L252.567,422.538
		C252.519,422.681,252.519,422.586,252.567,422.538"/>
	<path id="Fill_41" fill="#C5CFD6" d="M252.519,422.538L252.519,422.538C252.519,422.586,252.519,422.538,252.519,422.538"/>
	<path id="Fill_43" fill="#C5CFD6" d="M252.519,422.586"/>
	<path id="Fill_45" fill="#C5CFD6" d="M252.519,422.586L252.519,422.586"/>
	<path id="Fill_47" fill="#C5CFD6" d="M252.519,422.586C252.519,422.586,252.567,422.538,252.519,422.586"/>
	<path id="Fill_49" fill="#C5CFD6" d="M252.519,422.586L252.519,422.586L252.519,422.586"/>
	<path id="Photo_Background" fill="#2B44FF" d="M225.079,403.121l42.395-10.587c0.997-0.237,2.042,0.38,2.279,1.377l6.646,26.729
		c0.237,0.997-0.38,2.041-1.377,2.278l-42.395,10.587c-0.997,0.237-2.042-0.38-2.279-1.376l-6.646-26.729
		C223.417,404.403,224.035,403.358,225.079,403.121z"/>
	<g id="icons8-night_landscape" transform="translate(9.058 20.093)" opacity="0.2">
		<path id="Mountains" d="M233.756,388.011l-7.881,24.972l26.586-6.646L233.756,388.011z"/>
		<path id="Mountains-2" d="M248.901,390.384l-7.786,18.801l23.5-5.839L248.901,390.384z"/>
	</g>
	<circle id="Sun" fill="#FFFFFF" cx="261.967" cy="405.068" r="4.51"/>
</g>
</svg>
